<svg class="t-store__pagination__arrow t-store__pagination__arrow_next" width="16px" height="16px" viewBox="0 0 16 16" version="1.1" xmlns="http://www.w3.org/2000/svg" xmlns:xlink="http://www.w3.org/1999/xlink">        <g stroke="none" stroke-width="1" fill="none" fill-rule="evenodd">            <path d="M10.1464466,3.14644661 C9.97288026,3.32001296 9.95359511,3.58943736 10.0885912,3.7843055 L10.1464466,3.85355339 L14.293,8 L0.5,8 C0.223857625,8 0,8.22385763 0,8.5 C0,8.74545989 0.176875161,8.94960837 0.410124368,8.99194433 L0.5,9 L14.293,9 L10.1464466,13.1464466 C9.97288026,13.320013 9.95359511,13.5894374 10.0885912,13.7843055 L10.1464466,13.8535534 C10.320013,14.0271197 10.5894374,14.0464049 10.7843055,13.9114088 L10.8535534,13.8535534 L15.8535534,8.85355339 L15.891039,8.81166225 L15.891039,8.81166225 L15.9332526,8.74976515 L15.9332526,8.74976515 L15.9623894,8.6905951 L15.9623894,8.6905951 L15.9833892,8.62813914 L15.9833892,8.62813914 L15.9945519,8.57406693 L15.9945519,8.57406693 L16,8.5 L16,8.5 L15.997179,8.4465724 L15.997179,8.4465724 L15.9833917,8.37185423 L15.9833917,8.37185423 L15.9622078,8.30896344 L15.9622078,8.30896344 L15.9114088,8.2156945 L15.9114088,8.2156945 L15.8654113,8.15871357 L15.8654113,8.15871357 L10.8535534,3.14644661 C10.6582912,2.95118446 10.3417088,2.95118446 10.1464466,3.14644661 Z" fill="#000000" fill-rule="nonzero"></path>        </g>    </svg>