<svg class="t-sociallinks__svg" version="1.1" id="Layer_1" xmlns="http://www.w3.org/2000/svg" xmlns:xlink="http://www.w3.org/1999/xlink" x="0px" y="0px" width="30px" height="30px" viewBox="0 0 99 99" enable-background="new 0 0 99 99" xml:space="preserve"><desc>VK</desc><path style="fill:#ffffff;" fill-rule="evenodd" clip-rule="evenodd" d="M49 98C76.062 98 98 76.062 98 49C98 21.938 76.062 0 49 0C21.938 0 0 21.938 0 49C0 76.062 21.938 98 49 98ZM22 34C22.4442 55.3198 33.1042 68.1323 51.7933 68.1323H52.8527V55.9351C59.7202 56.6182 64.9132 61.6409 66.9973 68.1323H76.7008C74.0359 58.4292 67.0314 53.0649 62.658 51.0149C67.0314 48.4866 73.1814 42.3367 74.6505 34H65.8353C63.922 40.7649 58.251 46.915 52.8527 47.4958V34H44.0374V57.6433C38.5707 56.2766 31.6692 49.6482 31.3617 34H22Z"></path></svg>