<svg class="t-sociallinks__svg" version="1.1" id="Layer_1" xmlns="http://www.w3.org/2000/svg" xmlns:xlink="http://www.w3.org/1999/xlink" x="0px" y="0px" width="30px" height="30px" viewBox="0 0 99 99" enable-background="new 0 0 99 99" xml:space="preserve"><desc>Whatsapp</desc><path style="fill:#ffffff;" d="M63.892 53.114C63.143 52.739 59.462 50.928 58.775 50.678C58.089 50.428 57.589 50.303 57.09 51.053C56.591 51.803 55.156 53.489 54.719 53.989C54.282 54.489 53.845 54.551 53.097 54.176C52.348 53.801 49.935 53.011 47.075 50.459C44.849 48.473 43.346 46.021 42.909 45.272C42.472 44.522 42.862 44.117 43.237 43.744C43.574 43.408 43.986 42.869 44.36 42.432C44.734 41.995 44.859 41.682 45.109 41.183C45.359 40.683 45.234 40.246 45.047 39.871C44.86 39.496 43.362 35.81 42.738 34.311C42.13 32.851 41.513 33.049 41.053 33.026C40.617 33.004 40.117 33 39.618 33C39.119 33 38.308 33.187 37.621 33.937C36.935 34.687 35 36.498 35 40.184C35 43.87 37.683 47.431 38.058 47.93C38.432 48.43 43.338 55.993 50.85 59.237C52.637 60.009 54.031 60.469 55.119 60.814C56.913 61.384 58.545 61.304 59.836 61.111C61.275 60.896 64.266 59.3 64.89 57.551C65.514 55.802 65.514 54.302 65.327 53.99C65.14 53.677 64.641 53.489 63.892 53.114Z"></path><path style="fill:#ffffff;" fill-rule="evenodd" clip-rule="evenodd" d="M49 98C76.062 98 98 76.062 98 49C98 21.938 76.062 0 49 0C21.938 0 0 21.938 0 49C0 76.062 21.938 98 49 98ZM50.221 17C58.238 17.003 65.763 20.124 71.421 25.789C77.08 31.454 80.194 38.983 80.189 46.992C80.182 63.515 66.737 76.96 50.22 76.96H50.208C45.193 76.958 40.264 75.7 35.887 73.312L20 77.479L24.252 61.949C21.63 57.405 20.25 52.249 20.252 46.967C20.258 30.443 33.703 17 50.221 17Z"></path></svg>